<svg width="800" height="400" xmlns="http://www.w3.org/2000/svg"><style> @keyframes fadeIn { from { opacity: 0; } to { opacity: 1; } } @keyframes drawLine { from { stroke-dashoffset: 1000; } to { stroke-dashoffset: 0; } } polyline { animation: drawLine 1.5s ease-in-out forwards; stroke-dasharray: 1000; stroke-dashoffset: 1000; } circle { animation: fadeIn 0.6s ease-in-out forwards; } text { font-family: -apple-system, BlinkMacSystemFont, "Segoe UI", Helvetica, Arial, sans-serif; } </style><rect width="800" height="400" fill="#0d1117" rx="10" ry="10" /><text x="400" y="30" text-anchor="middle" font-size="18" font-weight="bold" fill="#c9d1d9"> Evolução de Skills (Últimos 30 dias) </text><line x1="40" y1="40" x2="760" y2="40" stroke="#30363d" stroke-width="1" stroke-dasharray="5,5" /><text x="30" y="45" text-anchor="end" font-size="12" fill="#8b949e">-Infinity</text><line x1="40" y1="92" x2="760" y2="92" stroke="#30363d" stroke-width="1" stroke-dasharray="5,5" /><text x="30" y="97" text-anchor="end" font-size="12" fill="#8b949e">-Infinity</text><line x1="40" y1="144" x2="760" y2="144" stroke="#30363d" stroke-width="1" stroke-dasharray="5,5" /><text x="30" y="149" text-anchor="end" font-size="12" fill="#8b949e">-Infinity</text><line x1="40" y1="196" x2="760" y2="196" stroke="#30363d" stroke-width="1" stroke-dasharray="5,5" /><text x="30" y="201" text-anchor="end" font-size="12" fill="#8b949e">-Infinity</text><line x1="40" y1="248" x2="760" y2="248" stroke="#30363d" stroke-width="1" stroke-dasharray="5,5" /><text x="30" y="253" text-anchor="end" font-size="12" fill="#8b949e">-Infinity</text><line x1="40" y1="300" x2="760" y2="300" stroke="#30363d" stroke-width="1" stroke-dasharray="5,5" /><text x="30" y="305" text-anchor="end" font-size="12" fill="#8b949e">NaN</text><text x="40" y="380" text-anchor="middle" font-size="12" fill="#8b949e">W1</text><text x="220" y="380" text-anchor="middle" font-size="12" fill="#8b949e">W2</text><text x="400" y="380" text-anchor="middle" font-size="12" fill="#8b949e">W3</text><text x="580" y="380" text-anchor="middle" font-size="12" fill="#8b949e">W4</text><text x="760" y="380" text-anchor="middle" font-size="12" fill="#8b949e">W5</text><rect x="40" y="360" width="720" height="30" rx="5" ry="5" fill="#0d1117" stroke="#30363d" stroke-width="1" /><text x="760" y="390" text-anchor="end" font-size="10" fill="#8b949e"> Atualizado em: 01/06/2025, 00:29:36 </text></svg>