<svg width="800" height="400" xmlns="http://www.w3.org/2000/svg"><style> @keyframes fadeIn { from { opacity: 0; } to { opacity: 1; } } @keyframes drawLine { from { stroke-dashoffset: 1000; } to { stroke-dashoffset: 0; } } polyline { animation: drawLine 1.5s ease-in-out forwards; stroke-dasharray: 1000; stroke-dashoffset: 1000; } circle { animation: fadeIn 0.6s ease-in-out forwards; } text { font-family: -apple-system, BlinkMacSystemFont, "Segoe UI", Helvetica, Arial, sans-serif; } </style><rect width="800" height="400" fill="#ffffff" rx="10" ry="10" /><text x="400" y="30" text-anchor="middle" font-size="18" font-weight="bold" fill="#24292e"> Evolução de Skills (Últimos 30 dias) </text><line x1="40" y1="40" x2="760" y2="40" stroke="#e1e4e8" stroke-width="1" stroke-dasharray="5,5" /><text x="30" y="45" text-anchor="end" font-size="12" fill="#57606a">1</text><line x1="40" y1="92" x2="760" y2="92" stroke="#e1e4e8" stroke-width="1" stroke-dasharray="5,5" /><text x="30" y="97" text-anchor="end" font-size="12" fill="#57606a">1</text><line x1="40" y1="144" x2="760" y2="144" stroke="#e1e4e8" stroke-width="1" stroke-dasharray="5,5" /><text x="30" y="149" text-anchor="end" font-size="12" fill="#57606a">1</text><line x1="40" y1="196" x2="760" y2="196" stroke="#e1e4e8" stroke-width="1" stroke-dasharray="5,5" /><text x="30" y="201" text-anchor="end" font-size="12" fill="#57606a">0</text><line x1="40" y1="248" x2="760" y2="248" stroke="#e1e4e8" stroke-width="1" stroke-dasharray="5,5" /><text x="30" y="253" text-anchor="end" font-size="12" fill="#57606a">0</text><line x1="40" y1="300" x2="760" y2="300" stroke="#e1e4e8" stroke-width="1" stroke-dasharray="5,5" /><text x="30" y="305" text-anchor="end" font-size="12" fill="#57606a">0</text><text x="40" y="380" text-anchor="middle" font-size="12" fill="#57606a">W1</text><text x="220" y="380" text-anchor="middle" font-size="12" fill="#57606a">W2</text><text x="400" y="380" text-anchor="middle" font-size="12" fill="#57606a">W3</text><text x="580" y="380" text-anchor="middle" font-size="12" fill="#57606a">W4</text><text x="760" y="380" text-anchor="middle" font-size="12" fill="#57606a">W5</text><polyline points="40,300 220,300 400,40 580,300 760,40" fill="none" stroke="#6e56cf" stroke-width="2" /><circle cx="40" cy="300" r="4" fill="#6e56cf" stroke="#ffffff" stroke-width="1" /><circle cx="220" cy="300" r="4" fill="#6e56cf" stroke="#ffffff" stroke-width="1" /><circle cx="400" cy="40" r="4" fill="#6e56cf" stroke="#ffffff" stroke-width="1" /><circle cx="580" cy="300" r="4" fill="#6e56cf" stroke="#ffffff" stroke-width="1" /><circle cx="760" cy="40" r="4" fill="#6e56cf" stroke="#ffffff" stroke-width="1" /><rect x="40" y="360" width="720" height="50" rx="5" ry="5" fill="#ffffff" stroke="#e1e4e8" stroke-width="1" /><g><circle cx="50" cy="370" r="5" fill="#6e56cf" /><text x="65" y="375" font-size="14" fill="#24292e">Markdown</text><text x="190" y="375" font-size="14" fill="#1a7f37" font-weight="bold">↑ 1</text></g><text x="760" y="390" text-anchor="end" font-size="10" fill="#57606a"> Atualizado em: 31/05/2025, 12:33:04 </text></svg>