<svg width="760" height="600" xmlns="http://www.w3.org/2000/svg"><style> @keyframes fadeInUp { from { opacity: 0; transform: translateY(10px); } to { opacity: 1; transform: translateY(0); } } .tech-item { animation: fadeInUp 0.6s ease-out forwards; opacity: 0; } text { font-family: -apple-system, BlinkMacSystemFont, "Segoe UI", "Noto Sans", Helvetica, Arial, sans-serif; } .title-text { animation: fadeInUp 0.8s ease-out; } .tech-item:hover rect { fill: #6366f1; opacity: 0.2; } </style><rect width="760" height="600" fill="#ffffff" rx="12" /><g class="title-text"><text x="380" y="35" text-anchor="middle" font-size="18" font-weight="600" fill="#24292f"> Tech Stack </text><line x1="20" y1="45" x2="740" y2="45" stroke="#d0d7de" stroke-width="1" /></g><g class="tech-item" style="animation-delay: 0s"><rect x="30" y="80" width="100" height="80" rx="8" fill="#f6f8fa" stroke="#d0d7de" stroke-width="1" opacity="0.8" /><image x="60" y="95" width="40" height="40" href="https://media.giphy.com/media/eNAsjO55tPbgaor7ma/giphy.gif" /><text x="80" y="145" text-anchor="middle" font-size="11" font-weight="500" fill="#24292f"> React </text></g><g class="tech-item" style="animation-delay: 0.05s"><rect x="150" y="80" width="100" height="80" rx="8" fill="#f6f8fa" stroke="#d0d7de" stroke-width="1" opacity="0.8" /><image x="180" y="95" width="40" height="40" href="https://assets.vercel.com/image/upload/v1662130559/nextjs/Icon_dark_background.png" /><text x="200" y="145" text-anchor="middle" font-size="11" font-weight="500" fill="#24292f"> Next.js </text></g><g class="tech-item" style="animation-delay: 0.1s"><rect x="270" y="80" width="100" height="80" rx="8" fill="#f6f8fa" stroke="#d0d7de" stroke-width="1" opacity="0.8" /><image x="300" y="95" width="40" height="40" href="https://media.giphy.com/media/XAxylRMCdpbEWUAvr8/giphy.gif" /><text x="320" y="145" text-anchor="middle" font-size="11" font-weight="500" fill="#24292f"> Angular </text></g><g class="tech-item" style="animation-delay: 0.15000000000000002s"><rect x="390" y="80" width="100" height="80" rx="8" fill="#f6f8fa" stroke="#d0d7de" stroke-width="1" opacity="0.8" /><image x="420" y="95" width="40" height="40" href="https://media.giphy.com/media/ln7z2eWriiQAllfVcn/giphy.gif" /><text x="440" y="145" text-anchor="middle" font-size="11" font-weight="500" fill="#24292f"> TypeScript </text></g><g class="tech-item" style="animation-delay: 0.2s"><rect x="510" y="80" width="100" height="80" rx="8" fill="#f6f8fa" stroke="#d0d7de" stroke-width="1" opacity="0.8" /><image x="540" y="95" width="40" height="40" href="https://media.giphy.com/media/QssGEmpkyEOhBCb7e1/giphy.gif" /><text x="560" y="145" text-anchor="middle" font-size="11" font-weight="500" fill="#24292f"> Tailwind CSS </text></g><g class="tech-item" style="animation-delay: 0.25s"><rect x="630" y="80" width="100" height="80" rx="8" fill="#f6f8fa" stroke="#d0d7de" stroke-width="1" opacity="0.8" /><image x="660" y="95" width="40" height="40" href="https://media.giphy.com/media/bGgsc5mWoryfgKBx1u/giphy.gif" /><text x="680" y="145" text-anchor="middle" font-size="11" font-weight="500" fill="#24292f"> Vite </text></g><g class="tech-item" style="animation-delay: 0.30000000000000004s"><rect x="30" y="180" width="100" height="80" rx="8" fill="#f6f8fa" stroke="#d0d7de" stroke-width="1" opacity="0.8" /><image x="60" y="195" width="40" height="40" href="https://ui.shadcn.com/favicon.ico" /><text x="80" y="245" text-anchor="middle" font-size="11" font-weight="500" fill="#24292f"> ShadCN </text></g><g class="tech-item" style="animation-delay: 0.35000000000000003s"><rect x="150" y="180" width="100" height="80" rx="8" fill="#f6f8fa" stroke="#d0d7de" stroke-width="1" opacity="0.8" /><image x="180" y="195" width="40" height="40" href="https://media.giphy.com/media/26tn33aiTi1jkl6H6/giphy.gif" /><text x="200" y="245" text-anchor="middle" font-size="11" font-weight="500" fill="#24292f"> Framer Motion </text></g><g class="tech-item" style="animation-delay: 0.4s"><rect x="270" y="180" width="100" height="80" rx="8" fill="#f6f8fa" stroke="#d0d7de" stroke-width="1" opacity="0.8" /><image x="300" y="195" width="40" height="40" href="https://media.giphy.com/media/kdFc8fubgS31b8DsVu/giphy.gif" /><text x="320" y="245" text-anchor="middle" font-size="11" font-weight="500" fill="#24292f"> Node.js </text></g><g class="tech-item" style="animation-delay: 0.45s"><rect x="390" y="180" width="100" height="80" rx="8" fill="#f6f8fa" stroke="#d0d7de" stroke-width="1" opacity="0.8" /><image x="420" y="195" width="40" height="40" href="https://media.giphy.com/media/KAq5w47R9rmTuvWOWa/giphy.gif" /><text x="440" y="245" text-anchor="middle" font-size="11" font-weight="500" fill="#24292f"> Python </text></g><g class="tech-item" style="animation-delay: 0.5s"><rect x="510" y="180" width="100" height="80" rx="8" fill="#f6f8fa" stroke="#d0d7de" stroke-width="1" opacity="0.8" /><image x="540" y="195" width="40" height="40" href="https://media.giphy.com/media/ZVik7pBtu9dNS/giphy.gif" /><text x="560" y="245" text-anchor="middle" font-size="11" font-weight="500" fill="#24292f"> C# </text></g><g class="tech-item" style="animation-delay: 0.55s"><rect x="630" y="180" width="100" height="80" rx="8" fill="#f6f8fa" stroke="#d0d7de" stroke-width="1" opacity="0.8" /><image x="660" y="195" width="40" height="40" href="https://devblogs.microsoft.com/dotnet/wp-content/uploads/sites/10/2019/04/BrandBlazor_nohalo_1000x.png" /><text x="680" y="245" text-anchor="middle" font-size="11" font-weight="500" fill="#24292f"> Blazor </text></g><g class="tech-item" style="animation-delay: 0.6000000000000001s"><rect x="30" y="280" width="100" height="80" rx="8" fill="#f6f8fa" stroke="#d0d7de" stroke-width="1" opacity="0.8" /><image x="60" y="295" width="40" height="40" href="https://media.giphy.com/media/ln7z2eWriiQAllfVcn/giphy.gif" /><text x="80" y="345" text-anchor="middle" font-size="11" font-weight="500" fill="#24292f"> Express </text></g><g class="tech-item" style="animation-delay: 0.65s"><rect x="150" y="280" width="100" height="80" rx="8" fill="#f6f8fa" stroke="#d0d7de" stroke-width="1" opacity="0.8" /><image x="180" y="295" width="40" height="40" href="https://media.giphy.com/media/jnDKffgCfGYOp6cMTK/giphy.gif" /><text x="200" y="345" text-anchor="middle" font-size="11" font-weight="500" fill="#24292f"> PostgreSQL </text></g><g class="tech-item" style="animation-delay: 0.7000000000000001s"><rect x="270" y="280" width="100" height="80" rx="8" fill="#f6f8fa" stroke="#d0d7de" stroke-width="1" opacity="0.8" /><image x="300" y="295" width="40" height="40" href="https://media.giphy.com/media/74d1H50VBuE2A/giphy.gif" /><text x="320" y="345" text-anchor="middle" font-size="11" font-weight="500" fill="#24292f"> MongoDB </text></g><g class="tech-item" style="animation-delay: 0.75s"><rect x="390" y="280" width="100" height="80" rx="8" fill="#f6f8fa" stroke="#d0d7de" stroke-width="1" opacity="0.8" /><image x="420" y="295" width="40" height="40" href="https://supabase.com/favicon.ico" /><text x="440" y="345" text-anchor="middle" font-size="11" font-weight="500" fill="#24292f"> Supabase </text></g><g class="tech-item" style="animation-delay: 0.8s"><rect x="510" y="280" width="100" height="80" rx="8" fill="#f6f8fa" stroke="#d0d7de" stroke-width="1" opacity="0.8" /><image x="540" y="295" width="40" height="40" href="https://media.giphy.com/media/XAxylRMCdpbEWUAvr8/giphy.gif" /><text x="560" y="345" text-anchor="middle" font-size="11" font-weight="500" fill="#24292f"> Prisma </text></g><g class="tech-item" style="animation-delay: 0.8500000000000001s"><rect x="630" y="280" width="100" height="80" rx="8" fill="#f6f8fa" stroke="#d0d7de" stroke-width="1" opacity="0.8" /><image x="660" y="295" width="40" height="40" href="https://jwt.io/img/pic_logo.svg" /><text x="680" y="345" text-anchor="middle" font-size="11" font-weight="500" fill="#24292f"> JWT </text></g><g class="tech-item" style="animation-delay: 0.9s"><rect x="30" y="380" width="100" height="80" rx="8" fill="#f6f8fa" stroke="#d0d7de" stroke-width="1" opacity="0.8" /><image x="60" y="395" width="40" height="40" href="https://socket.io/images/logo.svg" /><text x="80" y="445" text-anchor="middle" font-size="11" font-weight="500" fill="#24292f"> Socket.io </text></g><g class="tech-item" style="animation-delay: 0.9500000000000001s"><rect x="150" y="380" width="100" height="80" rx="8" fill="#f6f8fa" stroke="#d0d7de" stroke-width="1" opacity="0.8" /><image x="180" y="395" width="40" height="40" href="https://media.giphy.com/media/kH1DBkPNyZPOk0BxrM/giphy.gif" /><text x="200" y="445" text-anchor="middle" font-size="11" font-weight="500" fill="#24292f"> Git </text></g><g class="tech-item" style="animation-delay: 1s"><rect x="270" y="380" width="100" height="80" rx="8" fill="#f6f8fa" stroke="#d0d7de" stroke-width="1" opacity="0.8" /><image x="300" y="395" width="40" height="40" href="https://media.giphy.com/media/6HkGCxUE8kTG8/giphy.gif" /><text x="320" y="445" text-anchor="middle" font-size="11" font-weight="500" fill="#24292f"> Docker </text></g><g class="tech-item" style="animation-delay: 1.05s"><rect x="390" y="380" width="100" height="80" rx="8" fill="#f6f8fa" stroke="#d0d7de" stroke-width="1" opacity="0.8" /><image x="420" y="395" width="40" height="40" href="https://media.giphy.com/media/IdyAQJVN2kVPNUrojM/giphy.gif" /><text x="440" y="445" text-anchor="middle" font-size="11" font-weight="500" fill="#24292f"> VS Code </text></g><g class="tech-item" style="animation-delay: 1.1s"><rect x="510" y="380" width="100" height="80" rx="8" fill="#f6f8fa" stroke="#d0d7de" stroke-width="1" opacity="0.8" /><image x="540" y="395" width="40" height="40" href="https://www.postman.com/assets/logos/postman-logo-icon-orange.svg" /><text x="560" y="445" text-anchor="middle" font-size="11" font-weight="500" fill="#24292f"> Postman </text></g><g class="tech-item" style="animation-delay: 1.1500000000000001s"><rect x="630" y="380" width="100" height="80" rx="8" fill="#f6f8fa" stroke="#d0d7de" stroke-width="1" opacity="0.8" /><image x="660" y="395" width="40" height="40" href="https://swagger.io/favicon-32x32.png" /><text x="680" y="445" text-anchor="middle" font-size="11" font-weight="500" fill="#24292f"> Swagger </text></g><g class="tech-item" style="animation-delay: 1.2000000000000002s"><rect x="30" y="480" width="100" height="80" rx="8" fill="#f6f8fa" stroke="#d0d7de" stroke-width="1" opacity="0.8" /><image x="60" y="495" width="40" height="40" href="https://assets.vercel.com/image/upload/front/favicon/vercel/180x180.png" /><text x="80" y="545" text-anchor="middle" font-size="11" font-weight="500" fill="#24292f"> Vercel </text></g><text x="380" y="585" text-anchor="middle" font-size="10" fill="#656d76"> 25 tecnologias • Atualizado automaticamente </text><rect x="0" y="0" width="760" height="3" fill="#6366f1" rx="2" /></svg>