<svg width="760" height="600" xmlns="http://www.w3.org/2000/svg"><style> @keyframes fadeInUp { from { opacity: 0; transform: translateY(10px); } to { opacity: 1; transform: translateY(0); } } .tech-item { animation: fadeInUp 0.6s ease-out forwards; opacity: 0; } text { font-family: -apple-system, BlinkMacSystemFont, "Segoe UI", "Noto Sans", Helvetica, Arial, sans-serif; } .title-text { animation: fadeInUp 0.8s ease-out; } .tech-item:hover rect { fill: #6366f1; opacity: 0.2; } </style><rect width="760" height="600" fill="#0d1117" rx="12" /><g class="title-text"><text x="380" y="35" text-anchor="middle" font-size="18" font-weight="600" fill="#e6edf3"> Tech Stack </text><line x1="20" y1="45" x2="740" y2="45" stroke="#21262d" stroke-width="1" /></g><g class="tech-item" style="animation-delay: 0s"><rect x="30" y="80" width="100" height="80" rx="8" fill="#161b22" stroke="#21262d" stroke-width="1" opacity="0.8" /><image x="60" y="95" width="40" height="40" href="./icons/react.svg" /><text x="80" y="145" text-anchor="middle" font-size="11" font-weight="500" fill="#e6edf3"> React </text></g><g class="tech-item" style="animation-delay: 0.05s"><rect x="150" y="80" width="100" height="80" rx="8" fill="#161b22" stroke="#21262d" stroke-width="1" opacity="0.8" /><image x="180" y="95" width="40" height="40" href="./icons/nextjs.svg" /><text x="200" y="145" text-anchor="middle" font-size="11" font-weight="500" fill="#e6edf3"> Next.js </text></g><g class="tech-item" style="animation-delay: 0.1s"><rect x="270" y="80" width="100" height="80" rx="8" fill="#161b22" stroke="#21262d" stroke-width="1" opacity="0.8" /><image x="300" y="95" width="40" height="40" href="./icons/angular.svg" /><text x="320" y="145" text-anchor="middle" font-size="11" font-weight="500" fill="#e6edf3"> Angular </text></g><g class="tech-item" style="animation-delay: 0.15000000000000002s"><rect x="390" y="80" width="100" height="80" rx="8" fill="#161b22" stroke="#21262d" stroke-width="1" opacity="0.8" /><image x="420" y="95" width="40" height="40" href="./icons/typescript.svg" /><text x="440" y="145" text-anchor="middle" font-size="11" font-weight="500" fill="#e6edf3"> TypeScript </text></g><g class="tech-item" style="animation-delay: 0.2s"><rect x="510" y="80" width="100" height="80" rx="8" fill="#161b22" stroke="#21262d" stroke-width="1" opacity="0.8" /><image x="540" y="95" width="40" height="40" href="./icons/tailwindcss.svg" /><text x="560" y="145" text-anchor="middle" font-size="11" font-weight="500" fill="#e6edf3"> Tailwind CSS </text></g><g class="tech-item" style="animation-delay: 0.25s"><rect x="630" y="80" width="100" height="80" rx="8" fill="#161b22" stroke="#21262d" stroke-width="1" opacity="0.8" /><image x="660" y="95" width="40" height="40" href="./icons/vite.svg" /><text x="680" y="145" text-anchor="middle" font-size="11" font-weight="500" fill="#e6edf3"> Vite </text></g><g class="tech-item" style="animation-delay: 0.30000000000000004s"><rect x="30" y="180" width="100" height="80" rx="8" fill="#161b22" stroke="#21262d" stroke-width="1" opacity="0.8" /><g transform="translate(60, 195)"><svg width="40" height="40" viewBox="0 0 40 40"><rect width="40" height="40" rx="8" fill="#6366f1"/><text x="20" y="28" text-anchor="middle" font-size="18" font-weight="bold" fill="white">S</text></svg></g><text x="80" y="245" text-anchor="middle" font-size="11" font-weight="500" fill="#e6edf3"> ShadCN </text></g><g class="tech-item" style="animation-delay: 0.35000000000000003s"><rect x="150" y="180" width="100" height="80" rx="8" fill="#161b22" stroke="#21262d" stroke-width="1" opacity="0.8" /><g transform="translate(180, 195)"><svg width="40" height="40" viewBox="0 0 40 40"><rect width="40" height="40" rx="8" fill="#8b5cf6"/><text x="20" y="28" text-anchor="middle" font-size="18" font-weight="bold" fill="white">F</text></svg></g><text x="200" y="245" text-anchor="middle" font-size="11" font-weight="500" fill="#e6edf3"> Framer Motion </text></g><g class="tech-item" style="animation-delay: 0.4s"><rect x="270" y="180" width="100" height="80" rx="8" fill="#161b22" stroke="#21262d" stroke-width="1" opacity="0.8" /><image x="300" y="195" width="40" height="40" href="./icons/nodejs.svg" /><text x="320" y="245" text-anchor="middle" font-size="11" font-weight="500" fill="#e6edf3"> Node.js </text></g><g class="tech-item" style="animation-delay: 0.45s"><rect x="390" y="180" width="100" height="80" rx="8" fill="#161b22" stroke="#21262d" stroke-width="1" opacity="0.8" /><image x="420" y="195" width="40" height="40" href="./icons/python.svg" /><text x="440" y="245" text-anchor="middle" font-size="11" font-weight="500" fill="#e6edf3"> Python </text></g><g class="tech-item" style="animation-delay: 0.5s"><rect x="510" y="180" width="100" height="80" rx="8" fill="#161b22" stroke="#21262d" stroke-width="1" opacity="0.8" /><image x="540" y="195" width="40" height="40" href="./icons/csharp.svg" /><text x="560" y="245" text-anchor="middle" font-size="11" font-weight="500" fill="#e6edf3"> C# </text></g><g class="tech-item" style="animation-delay: 0.55s"><rect x="630" y="180" width="100" height="80" rx="8" fill="#161b22" stroke="#21262d" stroke-width="1" opacity="0.8" /><g transform="translate(660, 195)"><svg width="40" height="40" viewBox="0 0 40 40"><rect width="40" height="40" rx="8" fill="#6366f1"/><text x="20" y="28" text-anchor="middle" font-size="18" font-weight="bold" fill="white">B</text></svg></g><text x="680" y="245" text-anchor="middle" font-size="11" font-weight="500" fill="#e6edf3"> Blazor </text></g><g class="tech-item" style="animation-delay: 0.6000000000000001s"><rect x="30" y="280" width="100" height="80" rx="8" fill="#161b22" stroke="#21262d" stroke-width="1" opacity="0.8" /><image x="60" y="295" width="40" height="40" href="./icons/express.svg" /><text x="80" y="345" text-anchor="middle" font-size="11" font-weight="500" fill="#e6edf3"> Express </text></g><g class="tech-item" style="animation-delay: 0.65s"><rect x="150" y="280" width="100" height="80" rx="8" fill="#161b22" stroke="#21262d" stroke-width="1" opacity="0.8" /><image x="180" y="295" width="40" height="40" href="./icons/postgresql.svg" /><text x="200" y="345" text-anchor="middle" font-size="11" font-weight="500" fill="#e6edf3"> PostgreSQL </text></g><g class="tech-item" style="animation-delay: 0.7000000000000001s"><rect x="270" y="280" width="100" height="80" rx="8" fill="#161b22" stroke="#21262d" stroke-width="1" opacity="0.8" /><image x="300" y="295" width="40" height="40" href="./icons/mongodb.svg" /><text x="320" y="345" text-anchor="middle" font-size="11" font-weight="500" fill="#e6edf3"> MongoDB </text></g><g class="tech-item" style="animation-delay: 0.75s"><rect x="390" y="280" width="100" height="80" rx="8" fill="#161b22" stroke="#21262d" stroke-width="1" opacity="0.8" /><g transform="translate(420, 295)"><svg width="40" height="40" viewBox="0 0 40 40"><rect width="40" height="40" rx="8" fill="#06b6d4"/><text x="20" y="28" text-anchor="middle" font-size="18" font-weight="bold" fill="white">S</text></svg></g><text x="440" y="345" text-anchor="middle" font-size="11" font-weight="500" fill="#e6edf3"> Supabase </text></g><g class="tech-item" style="animation-delay: 0.8s"><rect x="510" y="280" width="100" height="80" rx="8" fill="#161b22" stroke="#21262d" stroke-width="1" opacity="0.8" /><image x="540" y="295" width="40" height="40" href="./icons/prisma.svg" /><text x="560" y="345" text-anchor="middle" font-size="11" font-weight="500" fill="#e6edf3"> Prisma </text></g><g class="tech-item" style="animation-delay: 0.8500000000000001s"><rect x="630" y="280" width="100" height="80" rx="8" fill="#161b22" stroke="#21262d" stroke-width="1" opacity="0.8" /><g transform="translate(660, 295)"><svg width="40" height="40" viewBox="0 0 40 40"><rect width="40" height="40" rx="8" fill="#10b981"/><text x="20" y="28" text-anchor="middle" font-size="18" font-weight="bold" fill="white">J</text></svg></g><text x="680" y="345" text-anchor="middle" font-size="11" font-weight="500" fill="#e6edf3"> JWT </text></g><g class="tech-item" style="animation-delay: 0.9s"><rect x="30" y="380" width="100" height="80" rx="8" fill="#161b22" stroke="#21262d" stroke-width="1" opacity="0.8" /><g transform="translate(60, 395)"><svg width="40" height="40" viewBox="0 0 40 40"><rect width="40" height="40" rx="8" fill="#10b981"/><text x="20" y="28" text-anchor="middle" font-size="18" font-weight="bold" fill="white">S</text></svg></g><text x="80" y="445" text-anchor="middle" font-size="11" font-weight="500" fill="#e6edf3"> Socket.io </text></g><g class="tech-item" style="animation-delay: 0.9500000000000001s"><rect x="150" y="380" width="100" height="80" rx="8" fill="#161b22" stroke="#21262d" stroke-width="1" opacity="0.8" /><image x="180" y="395" width="40" height="40" href="./icons/git.svg" /><text x="200" y="445" text-anchor="middle" font-size="11" font-weight="500" fill="#e6edf3"> Git </text></g><g class="tech-item" style="animation-delay: 1s"><rect x="270" y="380" width="100" height="80" rx="8" fill="#161b22" stroke="#21262d" stroke-width="1" opacity="0.8" /><image x="300" y="395" width="40" height="40" href="./icons/docker.svg" /><text x="320" y="445" text-anchor="middle" font-size="11" font-weight="500" fill="#e6edf3"> Docker </text></g><g class="tech-item" style="animation-delay: 1.05s"><rect x="390" y="380" width="100" height="80" rx="8" fill="#161b22" stroke="#21262d" stroke-width="1" opacity="0.8" /><image x="420" y="395" width="40" height="40" href="./icons/vscode.svg" /><text x="440" y="445" text-anchor="middle" font-size="11" font-weight="500" fill="#e6edf3"> VS Code </text></g><g class="tech-item" style="animation-delay: 1.1s"><rect x="510" y="380" width="100" height="80" rx="8" fill="#161b22" stroke="#21262d" stroke-width="1" opacity="0.8" /><g transform="translate(540, 395)"><svg width="40" height="40" viewBox="0 0 40 40"><rect width="40" height="40" rx="8" fill="#8b5cf6"/><text x="20" y="28" text-anchor="middle" font-size="18" font-weight="bold" fill="white">P</text></svg></g><text x="560" y="445" text-anchor="middle" font-size="11" font-weight="500" fill="#e6edf3"> Postman </text></g><g class="tech-item" style="animation-delay: 1.1500000000000001s"><rect x="630" y="380" width="100" height="80" rx="8" fill="#161b22" stroke="#21262d" stroke-width="1" opacity="0.8" /><g transform="translate(660, 395)"><svg width="40" height="40" viewBox="0 0 40 40"><rect width="40" height="40" rx="8" fill="#8b5cf6"/><text x="20" y="28" text-anchor="middle" font-size="18" font-weight="bold" fill="white">S</text></svg></g><text x="680" y="445" text-anchor="middle" font-size="11" font-weight="500" fill="#e6edf3"> Swagger </text></g><g class="tech-item" style="animation-delay: 1.2000000000000002s"><rect x="30" y="480" width="100" height="80" rx="8" fill="#161b22" stroke="#21262d" stroke-width="1" opacity="0.8" /><image x="60" y="495" width="40" height="40" href="./icons/vercel.svg" /><text x="80" y="545" text-anchor="middle" font-size="11" font-weight="500" fill="#e6edf3"> Vercel </text></g><text x="380" y="585" text-anchor="middle" font-size="10" fill="#7d8590"> 25 tecnologias • Atualizado automaticamente </text><rect x="0" y="0" width="760" height="3" fill="#6366f1" rx="2" /></svg>